<svg width="24" height="24" viewBox="0 0 24 24" fill="none" xmlns="http://www.w3.org/2000/svg">
<path d="M21.75 18.59C21.75 19.71 21.37 20.42 20.92 20.87C20.04 21.75 18.17 22.37 14.2 20.39L12.47 19.52C12.24 19.41 11.76 19.41 11.53 19.52L9.80002 20.39C5.83002 22.38 3.95002 21.75 3.08002 20.87C2.20002 20 1.57002 18.12 3.56002 14.16L7.84002 5.60001C8.90002 3.47001 10.38 2.3 12 2.3C13.62 2.3 15.1 3.47001 16.16 5.59001L20.44 14.15C21.41 16.09 21.75 17.53 21.75 18.59ZM3.75002 18.59C3.75002 19.13 3.88002 19.55 4.14002 19.81C4.86002 20.54 6.73002 20.25 9.12002 19.05L10.86 18.18C11.51 17.86 12.49 17.86 13.14 18.18L14.87 19.05C17.27 20.25 19.13 20.54 19.85 19.81C20.58 19.09 20.29 17.22 19.09 14.82L14.81 6.26001C14.03 4.69001 13 3.8 11.99 3.8C10.98 3.8 9.95002 4.70001 9.17002 6.27001L4.90002 14.83C4.14002 16.35 3.75002 17.66 3.75002 18.59Z" fill="#292D32"/>
<path d="M12.75 13.16V18.56C12.75 18.97 12.41 19.31 12 19.31C11.59 19.31 11.25 18.97 11.25 18.56V13.16C11.25 12.75 11.59 12.41 12 12.41C12.41 12.41 12.75 12.75 12.75 13.16Z" fill="#292D32"/>
</svg>
