<svg width="25" height="24" viewBox="0 0 25 24" fill="none" xmlns="http://www.w3.org/2000/svg">
<path d="M15.5 22.75H9.5C4.07 22.75 1.75 20.43 1.75 15V9C1.75 3.57 4.07 1.25 9.5 1.25H15.5C20.93 1.25 23.25 3.57 23.25 9V15C23.25 20.43 20.93 22.75 15.5 22.75ZM9.5 2.75C4.89 2.75 3.25 4.39 3.25 9V15C3.25 19.61 4.89 21.25 9.5 21.25H15.5C20.11 21.25 21.75 19.61 21.75 15V9C21.75 4.39 20.11 2.75 15.5 2.75H9.5Z" fill="#929292"/>
<path d="M7.82999 15.24C7.66999 15.24 7.50999 15.19 7.36999 15.08C7.03999 14.83 6.97999 14.36 7.22999 14.03L9.60999 10.94C9.89999 10.57 10.31 10.33 10.78 10.27C11.24 10.21 11.71 10.34 12.08 10.63L13.91 12.07C13.98 12.13 14.05 12.13 14.1 12.12C14.14 12.12 14.21 12.1 14.27 12.02L16.58 9.04001C16.83 8.71001 17.31 8.65001 17.63 8.91001C17.96 9.16001 18.02 9.63001 17.76 9.96001L15.45 12.94C15.16 13.31 14.75 13.55 14.28 13.6C13.81 13.66 13.35 13.53 12.98 13.24L11.15 11.8C11.08 11.74 11 11.74 10.96 11.75C10.92 11.75 10.85 11.77 10.79 11.85L8.40999 14.94C8.27999 15.14 8.05999 15.24 7.82999 15.24Z" fill="#929292"/>
</svg>
